<svg viewBox="0 0 1440 180.18018018018017" xmlns="http://www.w3.org/2000/svg" style="max-height: 500px" width="1440" height="180.18018018018017"><path d="M0,0L30,42.7C60,85,120,171,180,176C240,181,300,107,360,96C420,85,480,139,540,144C600,149,660,107,720,80C780,53,840,43,900,48C960,53,1020,75,1080,96C1140,117,1200,139,1260,122.7C1320,107,1380,53,1410,26.7L1440,0L1440,0L1410,0C1380,0,1320,0,1260,0C1200,0,1140,0,1080,0C1020,0,960,0,900,0C840,0,780,0,720,0C660,0,600,0,540,0C480,0,420,0,360,0C300,0,240,0,180,0C120,0,60,0,30,0L0,0Z" fill-opacity="1" fill="#A5A5A5"/></svg>